<svg width="405" height="322" viewBox="0 0 405 322" fill="none" xmlns="http://www.w3.org/2000/svg">
<path d="M405 253.173C405 232.676 388.287 216 367.743 216C357.296 216 348.983 221.753 344.217 226.067C339.721 221.676 331.697 216 320.257 216C299.713 216 283 232.676 283 253.173C283 266.734 291.063 279.415 299.261 288.804C296.933 291.823 296.453 293.313 296.453 294.91C296.453 297.843 298.836 300.22 301.776 300.22C304.112 300.22 306.092 298.717 306.809 296.629C307.651 297.424 308.464 298.168 309.236 298.857C318.543 307.17 331.406 315.917 340.19 318.615C341.019 319.147 342.006 319.456 343.065 319.456C343.366 319.456 343.678 319.442 344 319.414C344.322 319.442 344.634 319.456 344.935 319.456C345.994 319.456 346.981 319.147 347.811 318.615C356.594 315.917 369.457 307.17 378.764 298.857C379.523 298.179 380.322 297.448 381.149 296.668C381.186 296.719 381.223 296.769 381.254 296.814C382.021 298.806 383.957 300.22 386.224 300.22C389.164 300.22 391.546 297.843 391.546 294.91C391.546 293.345 391.237 292.169 388.611 288.951C396.853 279.548 405 266.804 405 253.173ZM320.257 226.621C332.611 226.621 339.266 236.442 339.526 236.834C340.463 238.283 342.04 239.196 343.766 239.27C345.49 239.351 347.141 238.585 348.198 237.221C348.282 237.115 356.665 226.621 367.743 226.621C382.417 226.621 394.355 238.532 394.355 253.173C394.355 263.253 388.124 273.221 381.463 280.996C380.012 279.459 378.617 278.002 376.979 276.323L376.989 249.948H362.323V261.89C348.373 248.77 345.887 248.768 344 248.768C341.622 248.768 339.235 249.838 332.102 255.924C328.047 259.383 322.872 264.158 317.53 269.369C313.436 273.363 309.559 277.303 306.326 280.75C299.746 273.011 293.645 263.147 293.645 253.173C293.645 238.532 305.583 226.621 320.257 226.621ZM371.746 290.871C359.91 301.461 348.156 307.702 344 308.695C339.844 307.702 328.09 301.461 316.254 290.871C315.438 290.14 314.568 289.34 313.662 288.478C316.591 285.334 320.403 281.418 325.032 276.905C334.728 267.449 341.102 262.083 343.97 260.038C346.8 262.109 353.088 267.534 362.983 277.316C367.376 281.66 371.141 285.536 374.109 288.695C373.286 289.474 372.493 290.202 371.746 290.871Z" fill="url(#paint0_linear)"/>
<path d="M348.519 279.417H339.481C337.81 279.417 336.456 280.768 336.456 282.435V291.453C336.456 293.12 337.81 294.471 339.481 294.471H348.519C350.189 294.471 351.543 293.12 351.543 291.453V282.435C351.543 280.768 350.189 279.417 348.519 279.417Z" fill="url(#paint1_linear)"/>
<path fill-rule="evenodd" clip-rule="evenodd" d="M10.86 320C9.20315 320 7.86 318.657 7.86 317V299.92C7.86 299.021 8.263 298.17 8.95812 297.6L41.5673 270.869C41.5691 270.867 41.5709 270.866 41.5727 270.864C53.9061 260.657 57.42 256.181 57.42 249.66C57.42 246.222 56.3055 243.888 54.6906 242.395C53.0416 240.87 50.5429 239.92 47.26 239.92C41.1874 239.92 36.795 243.077 29.5683 251.972C28.5266 253.254 26.6445 253.453 25.358 252.416L10.238 240.236C8.98852 239.23 8.75218 237.418 9.7016 236.125C14.6358 229.403 19.6766 223.965 25.9111 220.24C32.1972 216.483 39.4709 214.6 48.66 214.6C59.3856 214.6 68.5885 217.749 75.1483 223.647C81.741 229.574 85.4 238.047 85.4 248.12C85.4 256.927 83.1088 263.684 78.4396 269.98C73.8898 276.114 67.1278 281.734 58.4765 288.432L58.4732 288.435L49.4759 295.38H83.38C85.0369 295.38 86.38 296.723 86.38 298.38V317C86.38 318.657 85.0369 320 83.38 320H10.86ZM40.68 298.38L56.64 286.06C74 272.62 82.4 264.5 82.4 248.12C82.4 229.5 68.96 217.6 48.66 217.6C31.16 217.6 21.78 224.74 12.12 237.9L27.24 250.08C34.52 241.12 39.7 236.92 47.26 236.92C54.96 236.92 60.42 241.4 60.42 249.66C60.42 257.78 55.66 263.1 43.48 273.18L10.86 299.92V317H83.38V298.38H40.68ZM188.867 268C188.867 297.561 170.496 321.68 142.187 321.68C113.864 321.68 95.7866 297.825 95.7866 268C95.7866 238.432 114.303 214.32 142.467 214.32C170.498 214.32 188.867 238.161 188.867 268ZM129.289 288.65C132.593 293.536 137.117 296.22 142.467 296.22C147.818 296.22 152.264 293.569 155.492 288.72C158.77 283.795 160.747 276.617 160.747 268C160.747 259.56 158.681 252.379 155.312 247.405C151.979 242.482 147.448 239.78 142.187 239.78C136.9 239.78 132.452 242.401 129.208 247.236C125.916 252.143 123.907 259.319 123.907 268C123.907 276.524 125.943 283.701 129.289 288.65ZM198.985 320C197.328 320 195.985 318.657 195.985 317V299.92C195.985 299.021 196.388 298.17 197.083 297.6L229.692 270.869C229.694 270.868 229.695 270.867 229.696 270.866C242.031 260.657 245.545 256.182 245.545 249.66C245.545 246.222 244.43 243.888 242.816 242.395C241.167 240.87 238.668 239.92 235.385 239.92C229.312 239.92 224.92 243.077 217.693 251.972C216.652 253.254 214.769 253.453 213.483 252.416L198.363 240.236C197.114 239.23 196.877 237.418 197.827 236.125C202.761 229.403 207.802 223.965 214.036 220.24C220.322 216.483 227.596 214.6 236.785 214.6C247.511 214.6 256.714 217.749 263.273 223.647C269.866 229.574 273.525 238.047 273.525 248.12C273.525 256.927 271.234 263.684 266.565 269.98C262.015 276.114 255.253 281.734 246.602 288.432L246.598 288.435L237.601 295.38H271.505C273.162 295.38 274.505 296.723 274.505 298.38V317C274.505 318.657 273.162 320 271.505 320H198.985ZM228.805 298.38L244.765 286.06C262.125 272.62 270.525 264.5 270.525 248.12C270.525 229.5 257.085 217.6 236.785 217.6C219.285 217.6 209.905 224.74 200.245 237.9L215.364 250.079L215.365 250.08C222.645 241.12 227.825 236.92 235.385 236.92C243.085 236.92 248.545 241.4 248.545 249.66C248.545 257.78 243.785 263.1 231.605 273.18L198.985 299.92V317H271.505V298.38H228.805ZM185.867 268C185.867 296.42 168.367 318.68 142.187 318.68C116.007 318.68 98.7866 296.7 98.7866 268C98.7866 239.58 116.427 217.32 142.467 217.32C168.367 217.32 185.867 239.3 185.867 268ZM120.907 268C120.907 285.92 129.447 299.22 142.467 299.22C155.487 299.22 163.747 286.06 163.747 268C163.747 250.22 155.067 236.78 142.187 236.78C129.307 236.78 120.907 249.8 120.907 268Z" fill="#FB5ECF"/>
<path d="M10.6189 86H46.5829C63.6469 86 74.8789 79.088 74.8789 65.264C74.8789 54.896 69.4789 49.82 60.7309 46.472C66.1309 43.448 70.6669 38.696 70.6669 30.164C70.6669 24.764 68.9389 20.552 65.4829 17.096C61.1629 12.776 54.3589 10.4 45.7189 10.4H10.6189V86ZM26.8189 40.964V24.98H43.2349C50.2549 24.98 54.1429 27.788 54.1429 32.756C54.1429 38.588 49.4989 40.964 42.1549 40.964H26.8189ZM26.8189 71.42V54.788H46.0429C54.5749 54.788 58.3549 57.92 58.3549 62.996C58.3549 68.828 53.9269 71.42 46.5829 71.42H26.8189ZM88.5603 86H142.884V70.88H105.192V10.4H88.5603V86ZM148.947 86H165.903L172.815 69.044H204.783L211.695 86H229.083L196.683 9.86H181.347L148.947 86ZM178.755 54.356L188.799 29.84L198.843 54.356H178.755ZM271.324 87.296C285.904 87.296 294.544 82.76 302.32 74.444L291.736 63.104C285.796 68.504 280.504 71.96 271.864 71.96C258.904 71.96 249.94 61.16 249.94 48.2C249.94 35.024 259.12 24.44 271.864 24.44C280.504 24.44 285.472 27.572 291.304 32.864L301.24 21.416C294.22 14.504 286.228 9.104 271.972 9.104C248.752 9.104 232.552 26.708 232.552 48.2C232.552 70.124 249.076 87.296 271.324 87.296ZM315.635 86H332.267V62.888L341.015 53.816L364.451 86H384.431L352.247 42.476L383.027 10.4H362.939L332.267 43.448V10.4H315.635V86ZM9.76133 189H25.1613V161.9H58.5613V147.9H25.1613V133H63.0613V119H9.76133V189ZM75.3863 189H90.7863V166.6H102.686L117.886 189H135.886L118.786 164C127.686 160.7 133.786 153.6 133.786 142.3C133.786 135.5 131.686 130 127.786 126.1C123.186 121.5 116.286 119 107.386 119H75.3863V189ZM90.7863 153V132.9H106.086C113.586 132.9 118.186 136.3 118.186 142.9C118.186 149 113.886 153 106.386 153H90.7863ZM148.352 189H163.752V119H148.352V189ZM181.246 189H208.546C230.546 189 245.746 173.7 245.746 154C245.746 134.1 230.546 119 208.546 119H181.246V189ZM196.646 175.1V132.9H208.546C221.146 132.9 229.646 141.6 229.646 154C229.646 166.6 221.146 175.1 208.546 175.1H196.646ZM248.488 189H264.188L270.588 173.3H300.188L306.588 189H322.688L292.688 118.5H278.488L248.488 189ZM276.088 159.7L285.388 137L294.688 159.7H276.088ZM342.157 189H357.557V161.1L384.457 119H366.957L349.957 147.1L333.257 119H315.257L342.157 161.4V189Z" fill="#00FFF0"/>
<defs>
<linearGradient id="paint0_linear" x1="344" y1="216" x2="344" y2="319.456" gradientUnits="userSpaceOnUse">
<stop offset="0.177083" stop-color="#5350FD"/>
<stop offset="0.890625" stop-color="#FB5ECF"/>
</linearGradient>
<linearGradient id="paint1_linear" x1="344" y1="216" x2="344" y2="319.456" gradientUnits="userSpaceOnUse">
<stop offset="0.177083" stop-color="#5350FD"/>
<stop offset="0.890625" stop-color="#FB5ECF"/>
</linearGradient>
</defs>
</svg>
